<svg width="2065" height="1153" viewBox="0 0 2065 1153" fill="none" xmlns="http://www.w3.org/2000/svg">
<rect y="89" width="1984" height="1064" fill="#333333"/>
<path d="M221.6 770.2H362.4V863H159.2C124 829.933 97.3333 788.067 79.2 737.4C61.0667 686.733 52 634.733 52 581.4C52 527.533 62.1333 475.8 82.4 426.2C102.667 376.6 132.8 335.533 172.8 303H362.4V399H221.6C207.2 415.533 194.667 442.2 184 479C173.867 515.8 168.8 551 168.8 584.6C168.8 618.2 173.867 653.4 184 690.2C194.667 727 207.2 753.667 221.6 770.2Z" fill="#0F9645"/>
<path d="M660.288 863H485.888C432.554 813.4 405.888 745.667 405.888 659.8C405.888 616.6 411.754 579 423.488 547C435.754 515 454.954 484.067 481.088 454.2H668.288C696.021 486.2 714.954 517.4 725.088 547.8C735.221 577.667 740.288 615 740.288 659.8C740.288 745.667 713.621 813.4 660.288 863ZM542.688 779H603.488C622.688 741.667 632.288 699.267 632.288 651.8C632.288 604.333 622.421 566.467 602.688 538.2H542.688C523.488 565.4 513.888 604.067 513.888 654.2C513.888 703.8 523.488 745.4 542.688 779ZM975.156 454.2H1059.96C1083.42 484.067 1099.42 513.933 1107.96 543.8C1116.49 573.667 1120.76 611 1120.76 655.8V863H1014.36V647.8C1014.36 597.133 1007.42 560.6 993.556 538.2H903.956V863H797.556V454.2H880.756L895.156 483C906.89 472.333 917.823 464.867 927.956 460.6C938.623 456.333 954.356 454.2 975.156 454.2ZM1286.01 303H1401.21V387H1329.21C1311.07 398.2 1302.01 420.6 1302.01 454.2H1385.21V538.2H1302.01V863H1195.61V538.2H1151.61V454.2H1195.61C1195.61 384.867 1225.74 334.467 1286.01 303ZM1910.28 454.2V820.6C1910.28 861.133 1904.95 893.667 1894.28 918.2C1884.15 942.733 1863.61 964.333 1832.68 983H1650.28V899.8H1787.08C1800.41 891.8 1807.08 879 1807.08 861.4V814.2C1787.35 830.733 1755.88 839 1712.68 839H1654.28C1611.08 787.267 1589.48 727.267 1589.48 659C1589.48 609.933 1596.41 569.933 1610.28 539C1624.15 507.533 1644.41 479.267 1671.08 454.2H1730.28C1764.95 454.2 1792.41 465.4 1812.68 487.8L1827.08 454.2H1910.28ZM1803.88 538.2H1726.28C1707.08 571.267 1697.48 609.4 1697.48 652.6C1697.48 695.267 1705.75 730.467 1722.28 758.2H1803.88V538.2Z" fill="white"/>
<path d="M1426.46 863V454.2H1532.06V863H1426.46ZM1426.46 303H1532.06V411H1426.46V303Z" fill="#FF0000"/>
</svg>
