<svg width="1710" height="1147" viewBox="0 0 1710 1147" fill="none" xmlns="http://www.w3.org/2000/svg">
<rect y="83" width="1710" height="1064" fill="#333333"/>
<path d="M97.4 863V303H384.6V399H207V532.6H365.4V625.4H207V770.2H387.8V863H97.4ZM580.944 606.2L630.544 454.2H741.744L665.744 653.4L744.944 863H635.344L580.144 704.6H576.944L524.144 863H414.544L493.744 653.4L417.744 454.2H527.344L577.744 606.2H580.944ZM806.463 684.6V538.2H751.263V454.2H806.463V343H912.863V454.2H978.463V538.2H912.863V710.2C912.863 742.733 918.463 765.667 929.663 779H978.463V863H864.863C836.596 836.867 819.529 808.6 813.663 778.2C808.863 752.6 806.463 721.4 806.463 684.6ZM1032.48 863V454.2H1108.48L1128.48 497.4C1149.81 468.6 1176.75 454.2 1209.28 454.2H1240.48V561.4H1138.88V863H1032.48Z" fill="white"/>
<path d="M1479.17 678.2H1393.57C1382.37 692.067 1376.77 709.4 1376.77 730.2C1376.77 751 1382.64 767.267 1394.37 779H1479.17V678.2ZM1307.17 454.2H1505.57C1537.57 473.4 1558.64 495.533 1568.77 520.6C1578.9 545.133 1583.97 578.733 1583.97 621.4V741.4C1583.97 785.667 1585.04 826.2 1587.17 863H1495.97L1481.57 834.2C1460.77 853.4 1431.44 863 1393.57 863H1343.17C1297.84 833.133 1275.17 790.2 1275.17 734.2C1275.17 677.667 1298.37 633.133 1344.77 600.6H1419.97C1440.77 600.6 1460.24 607 1478.37 619.8V579.8C1478.37 559 1469.3 545.133 1451.17 538.2H1307.17V454.2Z" fill="#0F9645"/>
</svg>
