<svg width="1710" height="1258" viewBox="0 0 1710 1258" fill="none" xmlns="http://www.w3.org/2000/svg">
<rect y="131" width="1710" height="1064" fill="#333333"/>
<path d="M197.8 341H413.8V449H241L238.3 454.4L382.3 717.2C411.7 770 426.4 810.2 426.4 837.8C426.4 898.4 406.3 942.8 366.1 971H127.6V866.6H313.9L316.6 861.2L154.6 570.5C131.2 528.5 119.5 494.3 119.5 467.9C119.5 405.5 145.6 363.2 197.8 341Z" fill="#FF0707"/>
<path d="M504.326 792.6V646.2H449.126V562.2H504.326V451H610.726V562.2H676.326V646.2H610.726V818.2C610.726 850.733 616.326 873.667 627.526 887H676.326V971H562.726C534.459 944.867 517.392 916.6 511.526 886.2C506.726 860.6 504.326 829.4 504.326 792.6ZM918.438 786.2H832.838C821.638 800.067 816.038 817.4 816.038 838.2C816.038 859 821.905 875.267 833.638 887H918.438V786.2ZM746.438 562.2H944.838C976.838 581.4 997.905 603.533 1008.04 628.6C1018.17 653.133 1023.24 686.733 1023.24 729.4V849.4C1023.24 893.667 1024.3 934.2 1026.44 971H935.238L920.838 942.2C900.038 961.4 870.705 971 832.838 971H782.438C737.105 941.133 714.438 898.2 714.438 842.2C714.438 785.667 737.638 741.133 784.038 708.6H859.238C880.038 708.6 899.505 715 917.638 727.8V687.8C917.638 667 908.572 653.133 890.438 646.2H746.438V562.2ZM1092.84 971V562.2H1168.84L1188.84 605.4C1210.18 576.6 1237.11 562.2 1269.64 562.2H1300.84V669.4H1199.24V971H1092.84ZM1370.73 792.6V646.2H1315.53V562.2H1370.73V451H1477.13V562.2H1542.73V646.2H1477.13V818.2C1477.13 850.733 1482.73 873.667 1493.93 887H1542.73V971H1429.13C1400.87 944.867 1383.8 916.6 1377.93 886.2C1373.13 860.6 1370.73 829.4 1370.73 792.6Z" fill="white"/>
</svg>
