<svg width="3871" height="1148" viewBox="0 0 3871 1148" fill="none" xmlns="http://www.w3.org/2000/svg">
<rect width="3871" height="1148" fill="#333333"/>
<path d="M135.8 802V382H306.8C326.4 389.2 343.8 401.8 359 419.8C374.2 437.8 381.8 459.6 381.8 485.2C381.8 530.4 367 562 337.4 580V582.4C374.2 602.8 392.6 634.8 392.6 678.4C392.6 728.4 367.2 769.6 316.4 802H135.8ZM217.4 555.4H276.8C294.4 544.6 303.2 528.2 303.2 506.2C303.2 484.2 295 466.8 278.6 454H217.4V555.4ZM217.4 732.4H279.2C286.4 727.2 292.8 719 298.4 707.8C304.4 696.6 307.4 685.4 307.4 674.2C307.4 663 305 652.8 300.2 643.6C295.4 634.4 289.4 627.6 282.2 623.2H217.4V732.4Z" fill="#FF0707"/>
<path d="M581.086 802H472.086C438.753 771 422.086 728.667 422.086 675C422.086 648 425.753 624.5 433.086 604.5C440.753 584.5 452.753 565.167 469.086 546.5H586.086C603.419 566.5 615.253 586 621.586 605C627.919 623.667 631.086 647 631.086 675C631.086 728.667 614.419 771 581.086 802ZM507.586 749.5H545.586C557.586 726.167 563.586 699.667 563.586 670C563.586 640.333 557.419 616.667 545.086 599H507.586C495.586 616 489.586 640.167 489.586 671.5C489.586 702.5 495.586 728.5 507.586 749.5ZM755.379 802H702.879C688.212 783.333 678.212 764.667 672.879 746C667.546 727.333 664.879 704 664.879 676V546.5H731.379V681C731.379 711.333 737.379 734.167 749.379 749.5H795.879V546.5H862.379V802H809.879L800.879 784C788.212 796 773.046 802 755.379 802ZM1016.16 546.5H1069.16C1083.83 565.167 1093.83 583.833 1099.16 602.5C1104.49 621.167 1107.16 644.5 1107.16 672.5V802H1040.66V667.5C1040.66 635.833 1036.33 613 1027.66 599H971.66V802H905.16V546.5H957.16L966.16 564.5C973.493 557.833 980.327 553.167 986.66 550.5C993.327 547.833 1003.16 546.5 1016.16 546.5ZM1341.65 661.5V546.5H1408.15V662C1408.15 691 1413.98 715.167 1425.65 734.5H1455.15C1466.15 715.5 1471.65 691.333 1471.65 662V546.5H1538.15V658C1538.15 683 1534.82 705 1528.15 724C1521.82 743 1511.32 764.5 1496.65 788.5L1463.15 843C1457.15 853.333 1450.82 861 1444.15 866C1437.48 871 1428.82 874.667 1418.15 877H1339.15V824.5H1393.15C1400.15 822.5 1405.98 819 1410.65 814C1415.32 809 1420.15 801.833 1425.15 792.5L1428.15 787H1393.65C1377.65 774 1364.98 756.5 1355.65 734.5C1346.32 712.167 1341.65 687.833 1341.65 661.5ZM2056.31 663.4H1992.11C1983.71 673.8 1979.51 686.8 1979.51 702.4C1979.51 718 1983.91 730.2 1992.71 739H2056.31V663.4ZM1927.31 495.4H2076.11C2100.11 509.8 2115.91 526.4 2123.51 545.2C2131.11 563.6 2134.91 588.8 2134.91 620.8V710.8C2134.91 744 2135.71 774.4 2137.31 802H2068.91L2058.11 780.4C2042.51 794.8 2020.51 802 1992.11 802H1954.31C1920.31 779.6 1903.31 747.4 1903.31 705.4C1903.31 663 1920.71 629.6 1955.51 605.2H2011.91C2027.51 605.2 2042.11 610 2055.71 619.6V589.6C2055.71 574 2048.91 563.6 2035.31 558.4H1927.31V495.4ZM2186.51 382H2265.71V517C2274.51 509 2282.71 503.4 2290.31 500.2C2298.31 497 2310.11 495.4 2325.71 495.4H2373.71C2390.51 511.8 2403.71 533 2413.31 559C2422.91 585 2427.71 613.6 2427.71 644.8C2427.71 711.6 2407.71 764 2367.71 802H2310.71C2291.11 802 2274.71 794.6 2261.51 779.8L2250.71 802H2186.51V382ZM2266.31 739H2323.91C2338.71 713.8 2346.11 683.2 2346.11 647.2C2346.11 611.2 2338.51 581.6 2323.31 558.4H2266.31V739ZM2465.96 633.4V495.4H2545.76V634C2545.76 668.8 2552.76 697.8 2566.76 721H2602.16C2615.36 698.2 2621.96 669.2 2621.96 634V495.4H2701.76V629.2C2701.76 659.2 2697.76 685.6 2689.76 708.4C2682.16 731.2 2669.56 757 2651.96 785.8L2611.76 851.2C2604.56 863.6 2596.96 872.8 2588.96 878.8C2580.96 884.8 2570.56 889.2 2557.76 892H2462.96V829H2527.76C2536.16 826.6 2543.16 822.4 2548.76 816.4C2554.36 810.4 2560.16 801.8 2566.16 790.6L2569.76 784H2528.36C2509.16 768.4 2493.96 747.4 2482.76 721C2471.56 694.2 2465.96 665 2465.96 633.4ZM2751.95 802V495.4H2808.95L2823.95 527.8C2839.95 506.2 2860.15 495.4 2884.55 495.4H2907.95V575.8H2831.75V802H2751.95ZM2942.37 802V495.4H3021.57V802H2942.37ZM2942.37 382H3021.57V463H2942.37V382ZM3382.83 668.2V558.4H3341.43V495.4H3382.83V412H3462.63V495.4H3511.83V558.4H3462.63V687.4C3462.63 711.8 3466.83 729 3475.23 739H3511.83V802H3426.63C3405.43 782.4 3392.63 761.2 3388.23 738.4C3384.63 719.2 3382.83 695.8 3382.83 668.2ZM3691.55 495.4H3748.55C3766.15 517.8 3778.15 540.2 3784.55 562.6C3790.95 585 3794.15 613 3794.15 646.6V802H3714.35V640.6C3714.35 602.6 3709.15 575.2 3698.75 558.4H3631.55V802H3551.75V382H3631.55V517C3640.35 509 3648.55 503.4 3656.15 500.2C3664.15 497 3675.95 495.4 3691.55 495.4Z" fill="white"/>
<path d="M1210.32 672C1210.32 686 1212.49 700.333 1216.82 715C1221.16 729.333 1227.16 740.833 1234.82 749.5H1309.82V802H1200.32C1160.99 770.667 1141.32 727.333 1141.32 672C1141.32 616.667 1162.32 574.833 1204.32 546.5H1309.82V599H1234.82C1218.49 616 1210.32 640.333 1210.32 672ZM3206.23 495.4H3269.83C3287.43 517.8 3299.43 540.2 3305.83 562.6C3312.23 585 3315.43 613 3315.43 646.6V802H3235.63V640.6C3235.63 602.6 3230.43 575.2 3220.03 558.4H3152.83V802H3073.03V495.4H3135.43L3146.23 517C3155.03 509 3163.23 503.4 3170.83 500.2C3178.83 497 3190.63 495.4 3206.23 495.4Z" fill="#0F9645"/>
<path d="M1666.85 802V382H1749.05V732.4H1873.85V802H1666.85Z" fill="#FF0000"/>
<rect x="2941" y="374" width="85" height="91" fill="#333333"/>
<rect x="2950" y="393" width="67" height="72" rx="33.5" fill="#FF0000"/>
<rect x="2950" y="393" width="67" height="72" rx="33.5" fill="#FF0000"/>
<rect x="2950" y="393" width="67" height="72" rx="33.5" fill="#FF0000"/>
<rect x="2950" y="393" width="67" height="72" rx="33.5" fill="#FF0000"/>
<path d="M2251 355.786C2527.32 95.5964 2894.96 273.896 2950.02 392.874" stroke="white" stroke-width="20" stroke-dasharray="20 20"/>
</svg>
